<svg width="122" height="28" viewBox="0 0 122 28" fill="none" xmlns="http://www.w3.org/2000/svg">
<path d="M61.0252 5.81294C59.7619 5.81294 58.6221 6.56221 58.1207 7.72375L51.3048 23.9277H56.0377L56.0901 23.7858C56.5331 22.5884 60.4209 12.0731 60.5652 11.6628L60.8316 10.9037L61.0941 11.6644C61.2175 12.0231 64.3249 21.8549 64.9315 23.7756L64.9796 23.9277H69.7952L63.9442 7.75961C63.4606 6.57718 62.3148 5.81294 61.0252 5.81294Z" fill="#FAFCFF"/>
<path d="M81.7508 12.9524C80.9625 12.9476 76.8023 12.9535 76.6581 12.9429C75.6436 12.872 74.9097 12.1329 74.9507 11.2241C74.9928 10.2907 75.6861 9.68335 76.7168 9.67743C78.5582 9.66758 84.7908 9.66877 86.6027 9.66955H86.8203V5.81405C86.8203 5.81405 78.7392 5.81366 76.5351 5.8239C76.0625 5.82587 75.5923 5.88618 75.1741 5.99693C72.5649 6.68708 70.8122 9.21195 71.0975 11.8701C71.3923 14.6145 73.7131 16.7298 76.4949 16.7901C77.1646 16.8043 81.5691 16.8055 81.8679 16.8087C82.8272 16.8193 83.5158 17.4275 83.5808 18.3218C83.6135 18.7766 83.4779 19.1814 83.1886 19.4932C82.8422 19.8672 82.3022 20.0741 81.6676 20.0761C80.1581 20.0816 71.4574 20.0804 71.4574 20.0804V23.9253C71.4574 23.9253 81.1277 23.9253 81.761 23.9237C84.9398 23.9154 87.4402 21.521 87.4529 18.4719C87.4667 15.3468 85.0151 12.974 81.7508 12.9524Z" fill="#FAFCFF"/>
<path d="M99.2567 12.9524C98.4684 12.9476 94.3074 12.9535 94.1639 12.9429C93.1494 12.872 92.4155 12.1329 92.4565 11.2241C92.4987 10.2907 93.192 9.68335 94.2227 9.67743C96.0641 9.66758 102.295 9.66837 104.109 9.66955H104.326V5.81405C104.326 5.81405 96.2446 5.81366 94.041 5.8239C93.5684 5.82587 93.0982 5.88618 92.68 5.99693C90.0708 6.68708 88.318 9.21195 88.6034 11.8701C88.8982 14.6145 91.2189 16.7298 94.0008 16.7901C94.6704 16.8043 99.075 16.8055 99.3737 16.8087C100.333 16.8193 101.022 17.4275 101.087 18.3218C101.119 18.7766 100.984 19.1814 100.694 19.4932C100.348 19.8672 99.8077 20.0741 99.1735 20.0761C97.6635 20.0816 88.9632 20.0804 88.9632 20.0804V23.9253C88.9632 23.9253 98.6335 23.9253 99.2669 23.9237C102.446 23.9154 104.946 21.521 104.959 18.4719C104.973 15.3468 102.521 12.974 99.2567 12.9524Z" fill="#FAFCFF"/>
<path d="M120.664 15.0459L120.524 14.8713L120.664 14.6963C121.32 13.8769 121.725 12.8994 121.835 11.8703C122.121 9.21218 120.369 6.6873 117.76 5.99676C117.341 5.88601 116.87 5.8261 116.397 5.82413C113.97 5.8127 106.523 5.81428 106.523 5.81428V9.66978C106.523 9.66978 114.384 9.66741 116.216 9.67727C117.246 9.68318 117.939 10.2906 117.983 11.2235C118.024 12.1328 117.289 12.8722 116.275 12.9431C116.235 12.9459 116.201 12.9479 116.149 12.9459L116.091 12.9463C115.75 12.9412 108.444 12.9483 108.444 12.9483V16.8049C108.444 16.8049 115.531 16.8042 116.113 16.7959L116.276 16.799C117.29 16.87 118.024 17.609 117.983 18.5175C117.939 19.4512 117.247 20.0586 116.217 20.0645C114.384 20.0744 106.523 20.072 106.523 20.072V23.9275C106.523 23.9275 114.542 23.9267 116.398 23.918C116.87 23.9161 117.34 23.8561 117.76 23.745C120.369 23.0549 122.121 20.53 121.835 17.8723C121.725 16.8428 121.32 15.8657 120.664 15.0459Z" fill="#FAFCFF"/>
<path d="M53.6764 11.7297C53.6764 10.727 53.4726 9.83856 53.0714 9.08851C52.6698 8.34043 52.1168 7.71493 51.4278 7.22934C50.744 6.74849 49.9285 6.38706 49.0031 6.15688C48.0646 5.92394 47.5069 5.81398 46.4538 5.81398H38.1027V9.33012H46.7521C47.3098 9.33012 47.7946 9.3987 48.1927 9.5331C48.5825 9.66672 48.9002 9.84566 49.1359 10.0644C49.3732 10.2859 49.5423 10.5374 49.6526 10.8338C49.7645 11.1365 49.8213 11.4549 49.8213 11.7817C49.8213 12.0931 49.7728 12.4025 49.6774 12.7C49.5856 12.9862 49.4303 13.2317 49.2037 13.4501C48.979 13.6677 48.6625 13.8498 48.2637 13.9916C47.8541 14.1347 47.3165 14.2072 46.6658 14.2072H38.1027V23.928H42.748V17.723H46.3107C48.7634 17.723 50.3845 17.2457 51.7309 16.1275C53.0217 15.0558 53.6764 13.5762 53.6764 11.7297Z" fill="#FAFCFF"/>
<path d="M22.3176 7.47133C22.3176 3.34506 18.9725 -3.05176e-05 14.8463 -3.05176e-05H0.000488281V7.47015H14.8474V14.8469H14.942C19.0155 14.8469 22.3176 11.5448 22.3176 7.47133Z" fill="#AFEF78"/>
<path d="M0.000244141 28H14.8472V14.8471H7.37702V20.5298H0.000244141V28Z" fill="#FAFCFF"/>
<path d="M7.37677 7.47016H0V14.8469H7.37677V7.47016Z" fill="#FAFCFF"/>
</svg>
